PathFileType	4	(X/Y/Z)	/Users/itak/Documents/Research/Walk-IL/dataset/trc/00427_00167.trc
DataRate	CameraRate	NumFrames	NumMarkers	Units	OrigDataRate	OrigDataStartFrame	OrigNumFrames
100.000000	100.000000	4	53	mm	100.000000	0	651
Frame#	Time	RPSI			LPSI			L3			STRN			T10			C7			CLAV			RBAK			LBAK			LSHO			LUPA			LAEL			LAOL			LWTS			LWPS			LFRA			LIFD			LHPS			LHTS			RSHO			RUPA			RAEL			RAOL			RWTS			RWPS			RFRA			RIFD			RHTS			RHPS			RBHD			LFHD			RFHD			LBHD			LHIP			RHIP			RASI			LASI			LKNE			LTHI			LANK			LTIP			LTOE			LMT1			LMT5			LHEE			RKNE			RTHI			RANK			RTIP			RTOE			RMT1			RMT5			RHEE			
		X1	Y1	Z1	X2	Y2	Z2	X3	Y3	Z3	X4	Y4	Z4	X5	Y5	Z5	X6	Y6	Z6	X7	Y7	Z7	X8	Y8	Z8	X9	Y9	Z9	X10	Y10	Z10	X11	Y11	Z11	X12	Y12	Z12	X13	Y13	Z13	X14	Y14	Z14	X15	Y15	Z15	X16	Y16	Z16	X17	Y17	Z17	X18	Y18	Z18	X19	Y19	Z19	X20	Y20	Z20	X21	Y21	Z21	X22	Y22	Z22	X23	Y23	Z23	X24	Y24	Z24	X25	Y25	Z25	X26	Y26	Z26	X27	Y27	Z27	X28	Y28	Z28	X29	Y29	Z29	X30	Y30	Z30	X31	Y31	Z31	X32	Y32	Z32	X33	Y33	Z33	X34	Y34	Z34	X35	Y35	Z35	X36	Y36	Z36	X37	Y37	Z37	X38	Y38	Z38	X39	Y39	Z39	X40	Y40	Z40	X41	Y41	Z41	X42	Y42	Z42	X43	Y43	Z43	X44	Y44	Z44	X45	Y45	Z45	X46	Y46	Z46	X47	Y47	Z47	X48	Y48	Z48	X49	Y49	Z49	X50	Y50	Z50	X51	Y51	Z51	X52	Y52	Z52	X53	Y53	Z53	

1	0	-1174.791015625	972.4208984375	-469.2594299316406	-1097.57470703125	969.9877319335938	-587.320556640625	-1135.085205078125	1064.821655273438	-513.2839965820312	-905.2044067382812	1250.236572265625	-384.8288879394531	-1151.750122070312	1189.49658203125	-529.8890991210938	-1100.86474609375	1457.191284179688	-484.1679382324219	-934.63720703125	1363.796142578125	-405.4570617675781	-1203.048950195312	1337.025024414062	-429.7705383300781	-1073.528198242188	1409.697021484375	-589.1704711914062	-940.9990844726562	1423.895751953125	-599.2639770507812	-888.5231323242188	1303.536376953125	-684.3184814453125	-848.18408203125	1082.096923828125	-683.6044921875	-950.770751953125	1068.70166015625	-686.8739013671875	-818.3734741210938	882.596923828125	-587.4014282226562	-816.42041015625	863.5015869140625	-659.3296508789062	-826.34423828125	994.3933715820312	-672.7991943359375	-817.5103759765625	713.2601928710938	-580.128662109375	-815.107177734375	782.64013671875	-650.3621826171875	-802.8118896484375	792.7557983398438	-580.7046508789062	-1114.257690429688	1417.414306640625	-306.7012939453125	-1160.530883789062	1353.920654296875	-244.6106719970703	-1154.027221679688	1063.870361328125	-185.9029388427734	-1194.087158203125	1045.62646484375	-237.2236328125	-1032.608276367188	869.4931030273438	-205.3776550292969	-1110.303466796875	848.0596313476562	-168.9292907714844	-1148.825317382812	1005.376708984375	-176.1936798095703	-1022.940490722656	710.4484252929688	-200.4346923828125	-1014.832641601562	770.3243408203125	-189.9112854003906	-1086.708618164062	762.226806640625	-167.3386688232422	-1082.692626953125	1644.808715820312	-377.2064208984375	-885.327880859375	1671.289428710938	-435.7297058105469	-956.4700317382812	1673.49609375	-326.0422973632812	-998.7333374023438	1646.023681640625	-534.6466674804688	-926.5111694335938	859.1844482421875	-612.4214477539062	-1157.535034179688	862.4658203125	-291.5924072265625	-1035.079833984375	900.1983642578125	-283.7471313476562	-881.4642944335938	894.9566650390625	-492.4153137207031	-967.4551391601562	434.9271240234375	-574.4242553710938	-926.1168823242188	585.3729248046875	-582.63427734375	-1039.239990234375	35.85829162597656	-593.91259765625	-974.9322509765625	283.1326293945312	-579.9185791015625	-900.354248046875	44.51703262329102	-405.7541198730469	-976.7607421875	49.32071304321289	-427.3959350585938	-909.7138671875	45.58006286621094	-518.5638427734375	-1113.096923828125	37.40317535400391	-586.8305053710938	-1133.113647460938	462.7944641113281	-323.3711853027344	-1127.291137695312	724.4076538085938	-264.9830322265625	-1167.381103515625	43.69527053833008	-365.4662475585938	-1146.261108398438	317.6625671386719	-321.2063903808594	-961.4201049804688	48.07745361328125	-289.7561950683594	-995.01025390625	52.99660491943359	-353.6680603027344	-1067.391357421875	48.99203491210938	-272.9298400878906	-1197.950439453125	34.48230743408203	-440.9127197265625	
2	0.01	-1174.869384765625	972.3704833984375	-469.493896484375	-1097.487426757812	969.9140625	-587.4967651367188	-1135.153564453125	1064.810668945312	-513.4011840820312	-905.3943481445312	1250.285278320312	-384.888427734375	-1151.847290039062	1189.46044921875	-530.0120239257812	-1101.0712890625	1457.1669921875	-484.2655944824219	-934.86865234375	1363.836059570312	-405.4908142089844	-1203.24462890625	1336.974487304688	-429.9163513183594	-1073.617797851562	1409.707885742188	-589.265380859375	-941.1270141601562	1423.928466796875	-599.3184204101562	-888.6237182617188	1303.588989257812	-684.3607788085938	-848.3257446289062	1082.204956054688	-683.8187866210938	-950.8063354492188	1068.7353515625	-687.0311279296875	-818.4921264648438	882.5665283203125	-587.8267211914062	-816.6124267578125	863.5750122070312	-659.7300415039062	-826.4917602539062	994.48583984375	-673.07568359375	-817.710693359375	713.21533203125	-580.742919921875	-815.1924438476562	782.716796875	-650.88037109375	-803.013671875	792.678955078125	-581.2520141601562	-1114.531982421875	1417.43359375	-306.8677978515625	-1160.80712890625	1354.009643554688	-244.7883911132812	-1154.294799804688	1064.09716796875	-185.5706024169922	-1194.360717773438	1045.748779296875	-236.8448638916016	-1032.80029296875	869.7363891601562	-204.708251953125	-1110.491088867188	848.37451171875	-168.1553497314453	-1149.089233398438	1005.611450195312	-175.7520599365234	-1023.069702148438	710.6908569335938	-199.2722625732422	-1014.966918945312	770.6438598632812	-188.9783020019531	-1086.864501953125	762.5633544921875	-166.3753814697266	-1082.9697265625	1644.827514648438	-377.3483581542969	-885.6326904296875	1671.408813476562	-435.8304748535156	-956.8984375	1673.561889648438	-326.1388549804688	-998.984130859375	1646.057250976562	-534.7752685546875	-926.3538818359375	859.1473388671875	-612.4237060546875	-1157.701538085938	862.4764404296875	-291.7447814941406	-1035.111450195312	900.2200927734375	-283.8392944335938	-881.6588745117188	894.956787109375	-492.5111694335938	-967.4019775390625	434.9369506835938	-574.4352416992188	-926.0244750976562	585.3723754882812	-582.6287841796875	-1039.235961914062	35.84535980224609	-593.9244384765625	-974.9029541015625	283.1234130859375	-579.9182739257812	-900.3671875	44.53224563598633	-405.76171875	-976.768798828125	49.32215881347656	-427.3958740234375	-909.7252807617188	45.58962631225586	-518.5592041015625	-1113.119506835938	37.39030838012695	-586.8366088867188	-1133.158081054688	462.7959289550781	-323.4842224121094	-1127.398193359375	724.3956909179688	-265.1156616210938	-1167.378173828125	43.69565963745117	-365.4768676757812	-1146.288940429688	317.6494750976562	-321.2372436523438	-961.42041015625	48.07350158691406	-289.7550048828125	-995.0284423828125	52.99128723144531	-353.6789245605469	-1067.391723632812	48.99396514892578	-272.9314270019531	-1197.948608398438	34.48280334472656	-440.9196472167969	
3	0.02	-1174.962768554688	972.3145141601562	-469.7835998535156	-1097.367309570312	969.8225708007812	-587.71826171875	-1135.238403320312	1064.792846679688	-513.5536499023438	-905.6400756835938	1250.346923828125	-384.9579162597656	-1151.97705078125	1189.413208007812	-530.1726684570312	-1101.335327148438	1457.13818359375	-484.4002075195312	-935.164794921875	1363.886962890625	-405.5342407226562	-1203.490478515625	1336.913818359375	-430.1147766113281	-1073.74462890625	1409.717651367188	-589.393798828125	-941.30126953125	1423.970703125	-599.3934936523438	-888.7488403320312	1303.653198242188	-684.4216918945312	-848.4824829101562	1082.331665039062	-684.0799560546875	-950.8580932617188	1068.790893554688	-687.2190551757812	-818.6128540039062	882.5286254882812	-588.3563842773438	-816.8297729492188	863.6572875976562	-660.24560546875	-826.6506958007812	994.5994262695312	-673.4218139648438	-817.916259765625	713.1643676757812	-581.5107421875	-815.3087768554688	782.8047485351562	-651.5316772460938	-803.2364501953125	792.5795288085938	-581.9249267578125	-1114.882934570312	1417.457763671875	-307.0813293457031	-1161.161987304688	1354.115844726562	-245.0099029541016	-1154.640502929688	1064.371215820312	-185.1781616210938	-1194.697875976562	1045.894653320312	-236.4110107421875	-1033.054565429688	870.0263061523438	-203.8633117675781	-1110.751708984375	848.7559814453125	-167.2151336669922	-1149.436279296875	1005.893310546875	-175.2249755859375	-1023.255615234375	710.9939575195312	-197.8281707763672	-1015.169311523438	771.01953125	-187.7917938232422	-1087.09716796875	762.968017578125	-165.185302734375	-1083.345947265625	1644.859252929688	-377.5440063476562	-886.03369140625	1671.552734375	-435.9701538085938	-957.4270629882812	1673.649169921875	-326.2835388183594	-999.3203735351562	1646.084716796875	-534.9443969726562	-926.1693725585938	859.1103515625	-612.4491577148438	-1157.9052734375	862.4872436523438	-291.9429931640625	-1035.166015625	900.250244140625	-283.9571228027344	-881.8795166015625	894.9600219726562	-492.6201171875	-967.3385620117188	434.9461975097656	-574.451171875	-925.9176025390625	585.3690795898438	-582.6212768554688	-1039.228393554688	35.83229064941406	-593.9407958984375	-974.8588256835938	283.1148071289062	-579.9140014648438	-900.38134765625	44.5496711730957	-405.7718811035156	-976.7789306640625	49.3243408203125	-427.3948364257812	-909.7402954101562	45.60084533691406	-518.5524291992188	-1113.140869140625	37.36917114257812	-586.8532104492188	-1133.2265625	462.7950439453125	-323.6235046386719	-1127.533203125	724.3800659179688	-265.2908935546875	-1167.377075195312	43.69515991210938	-365.4875183105469	-1146.33447265625	317.635986328125	-321.2852172851562	-961.4205932617188	48.07071685791016	-289.7537231445312	-995.0501708984375	52.98472595214844	-353.6923217773438	-1067.392333984375	48.99652481079102	-272.9338073730469	-1197.946533203125	34.48079681396484	-440.9279174804688	
4	0.03	-1175.065307617188	972.258056640625	-470.115234375	-1097.221557617188	969.7197875976562	-587.9741821289062	-1135.33544921875	1064.766723632812	-513.7379760742188	-905.9351196289062	1250.419189453125	-385.0321350097656	-1152.13720703125	1189.356323242188	-530.3665771484375	-1101.648193359375	1457.106689453125	-484.5718688964844	-935.515869140625	1363.946899414062	-405.5868530273438	-1203.776977539062	1336.845703125	-430.36279296875	-1073.907958984375	1409.723510742188	-589.5543212890625	-941.5208740234375	1424.0205078125	-599.4891967773438	-888.8922729492188	1303.725463867188	-684.5007934570312	-848.6376342773438	1082.468017578125	-684.3726806640625	-950.9265747070312	1068.871337890625	-687.4277954101562	-818.7188110351562	882.4830322265625	-588.9639282226562	-817.0452880859375	863.7429809570312	-660.8554077148438	-826.7996215820312	994.7286987304688	-673.8209838867188	-818.1132202148438	713.1075439453125	-582.4026489257812	-815.4472045898438	782.8977661132812	-652.2874755859375	-803.4553833007812	792.4607543945312	-582.6896362304688	-1115.297973632812	1417.48583984375	-307.3351135253906	-1161.585083007812	1354.230712890625	-245.2643432617188	-1155.055419921875	1064.674926757812	-184.7550964355469	-1195.082885742188	1046.05419921875	-235.9594268798828	-1033.36767578125	870.3438110351562	-202.8760833740234	-1111.09130859375	849.177490234375	-166.1650238037109	-1149.860473632812	1006.204650878906	-174.6481628417969	-1023.503601074219	711.3394775390625	-196.1710510253906	-1015.448791503906	771.4273681640625	-186.3965606689453	-1087.415161132812	763.4129028320312	-163.8323211669922	-1083.813232421875	1644.903686523438	-377.7893676757812	-886.5213012695312	1671.71142578125	-436.1502380371094	-958.0294189453125	1673.756225585938	-326.4784240722656	-999.7381591796875	1646.09765625	-535.150634765625	-925.966064453125	859.0755615234375	-612.5018310546875	-1158.13525390625	862.49609375	-292.1813049316406	-1035.249389648438	900.2891235351562	-284.0957946777344	-882.1084594726562	894.967041015625	-492.7338562011719	-967.2677612304688	434.9537963867188	-574.4718017578125	-925.8048095703125	585.3626708984375	-582.6123657226562	-1039.21728515625	35.82090759277344	-593.9617919921875	-974.800048828125	283.1079406738281	-579.9046630859375	-900.3961791992188	44.56829452514648	-405.7849731445312	-976.7904663085938	49.32705688476562	-427.3927001953125	-909.7588500976562	45.61298370361328	-518.5440673828125	-1113.156372070312	37.3391227722168	-586.8843994140625	-1133.322265625	462.7909851074219	-323.7820434570312	-1127.692993164062	724.3619995117188	-265.5029907226562	-1167.378540039062	43.69338989257812	-365.497314453125	-1146.400024414062	317.6239013671875	-321.3500366210938	-961.4207763671875	48.0692024230957	-289.7526245117188	-995.0726928710938	52.97776794433594	-353.7063903808594	-1067.393310546875	48.99975204467773	-272.9369506835938	-1197.944580078125	34.47613525390625	-440.9367980957031	
